# xmcd
#
# Track frame offsets:
#	150
#	8621
#	20787
#	31918
#	46428
#	57121
#	69479
#	81923
#	95293
#	103914
#	115615
#	130519
#
# Disc length: 1885 seconds
#
# Revision: 1
# Processed by: cddbd v1.5.2PL0 Copyright (c) Steve Scherf et al.
# Submitted via: audiograbber 1.83.01
#
DISCID=90075b0c
DTITLE=The Mojomatics - Don't Pretend That You Know Me
DYEAR=2008
DGENRE=garage rock
TTITLE0=Wait A While
TTITLE1=Miss Me When I'm Gone
TTITLE2=Clean My Sins
TTITLE3=Askin' For A Better Circumstance
TTITLE4=You Are Not Me (Fortunately)
TTITLE5=Complicate My Life
TTITLE6=Stars Above
TTITLE7=She Loves
TTITLE8=Losin' Time
TTITLE9=Down My Spine
TTITLE10=Hole In My Heart
TTITLE11=Winter Got No Eyes
EXTD=
EXTT0=
EXTT1=
EXTT2=
EXTT3=
EXTT4=
EXTT5=
EXTT6=
EXTT7=
EXTT8=
EXTT9=
EXTT10=
EXTT11=
PLAYORDER=
